# xmcd
#
# Track frame offsets:
#	150
#	16085
#	33531
#	51064
#	64506
#	78684
#	95948
#	120222
#	137041
#	151200
#
# Disc length: 2326 seconds
#
# Revision: 1
# Processed by: cddbd v1.5.2PL0 Copyright (c) Steve Scherf et al.
# Submitted via: audiograbber 1.83.01
#
DISCID=7909140a
DTITLE=Fly Over State - Fly Over State
DYEAR=2012
DGENRE=Indie
TTITLE0=Tonight
TTITLE1=Space
TTITLE2=1000 Suns
TTITLE3=Everyday
TTITLE4=Scatter
TTITLE5=Slippin
TTITLE6=Shoot
TTITLE7=Waiting
TTITLE8=Set Free
TTITLE9=Not Fair
EXTD=
EXTT0=
EXTT1=
EXTT2=
EXTT3=
EXTT4=
EXTT5=
EXTT6=
EXTT7=
EXTT8=
EXTT9=
PLAYORDER=
